<?xml version="1.0" encoding="utf-8"?>
<!-- Generator: Adobe Illustrator 16.0.0, SVG Export Plug-In . SVG Version: 6.00 Build 0)  -->
<!DOCTYPE svg PUBLIC "-//W3C//DTD SVG 1.1//EN" "http://www.w3.org/Graphics/SVG/1.1/DTD/svg11.dtd">
<svg version="1.1" id="b52d7e2d-d80f-4111-b6ed-d15502ee1edd"
	 xmlns="http://www.w3.org/2000/svg" xmlns:xlink="http://www.w3.org/1999/xlink" x="0px" y="0px" width="711.188px"
	 height="669.683px" viewBox="0 0 711.188 669.683" enable-background="new 0 0 711.188 669.683" xml:space="preserve">
<title>feeling_proud</title>
<polygon fill="#E6E6E6" points="516.326,380.018 516.326,565.013 547.27,615.443 549.625,619.279 671.722,619.279 674.189,380.018 
	"/>
<polygon opacity="0.1" enable-background="new    " points="516.326,380.018 516.326,565.013 547.27,615.443 549.169,380.018 "/>
<polygon fill="#E6E6E6" points="221.566,375.083 221.566,560.08 190.622,610.509 188.267,614.345 66.17,614.345 63.703,375.083 "/>
<polygon opacity="0.1" enable-background="new    " points="221.566,375.083 221.566,560.08 190.622,610.509 188.723,375.083 "/>
<polygon fill="#E6E6E6" points="711.188,371.384 711.188,382.484 47.67,382.484 47.67,366.451 109.335,334.385 656.923,334.385 "/>
<polygon opacity="0.1" enable-background="new    " points="711.188,371.384 711.188,382.484 47.67,382.484 47.67,366.451 "/>
<polygon fill="#3F3D56" points="142.635,426.882 113.035,426.882 100.702,418.25 156.201,418.25 "/>
<polygon fill="#3F3D56" points="142.635,462.65 113.035,462.65 100.702,454.015 156.201,454.015 "/>
<polygon fill="#3F3D56" points="142.635,513.214 113.035,513.214 100.702,504.582 156.201,504.582 "/>
<polygon fill="#3F3D56" points="142.635,563.781 113.035,563.781 100.702,555.146 156.201,555.146 "/>
<polygon fill="#3F3D56" points="595.257,431.816 624.857,431.816 637.19,423.183 581.691,423.183 "/>
<polygon fill="#3F3D56" points="595.257,467.582 624.857,467.582 637.19,458.949 581.691,458.949 "/>
<polygon fill="#3F3D56" points="595.257,518.148 624.857,518.148 637.19,509.515 581.691,509.515 "/>
<polygon fill="#3F3D56" points="595.257,568.712 624.857,568.712 637.19,560.08 581.691,560.08 "/>
<path fill="#3F3D56" d="M615.414,120.456H366.229c-5.204,0-9.424,4.218-9.424,9.422c0,0,0,0.001,0,0.002v167.858
	c-0.001,5.204,4.217,9.423,9.421,9.424c0.001,0,0.002,0,0.003,0h94.593l-3.544,22.626c0,0-20.253,10.759-6.013,11.076
	s81.328,0,81.328,0s12.975,0-7.595-11.392l-3.334-22.31h93.75c5.204,0.001,9.423-4.217,9.424-9.421c0-0.001,0-0.001,0-0.002V129.88
	c0-5.204-4.218-9.423-9.422-9.424C615.415,120.456,615.415,120.456,615.414,120.456z"/>
<rect x="365.823" y="130.424" fill="#F2F2F2" width="249.996" height="139.871"/>
<circle fill="#F2F2F2" cx="490.821" cy="125.994" r="1.582"/>
<circle fill="#F2F2F2" cx="490.821" cy="294.345" r="6.012"/>
<polygon fill="#3F3D56" points="481.452,357.953 481.452,361.117 311.202,361.117 311.202,358.585 311.436,357.953 315.632,346.56 
	477.971,346.56 "/>
<path fill="#3F3D56" d="M546.97,354.854c-0.311,1.325-1.481,2.725-4.127,4.048c-9.493,4.746-28.797-1.266-28.797-1.266
	s-14.873-2.532-14.873-9.178c0.418-0.286,0.854-0.545,1.304-0.775c3.991-2.111,17.226-7.322,40.69,0.221
	c1.729,0.543,3.272,1.555,4.46,2.923C546.694,351.876,547.193,353.375,546.97,354.854z"/>
<path opacity="0.1" enable-background="new    " d="M546.97,354.854c-11.62,4.452-21.978,4.784-32.607-2.599
	c-4.02-2.971-8.887-4.574-13.886-4.572c3.991-2.111,17.226-7.322,40.69,0.221c1.729,0.543,3.273,1.555,4.461,2.923
	C546.695,351.876,547.194,353.375,546.97,354.854z"/>
<ellipse fill="#F2F2F2" cx="532.4" cy="350.99" rx="4.113" ry="1.266"/>
<polygon opacity="0.1" enable-background="new    " points="481.452,357.953 481.452,361.117 311.202,361.117 311.202,358.585 
	311.436,357.953 "/>
<path fill="#2F2E41" d="M94.662,0c-1.728-0.142-3.458,0.245-4.961,1.108c-1.476,1.011-2.406,2.782-3.356,4.43
	c-3.63,6.375-8.546,11.928-14.434,16.305c-4.289,3.142-9.742,7.06-9.008,12.853c0.387,1.913,1.094,3.747,2.09,5.425
	c3.957,7.987,14.753,14.159,13.691,23.273c3.931-6.581-1.327-9.835,2.604-16.416c1.872-3.134,5.125-6.672,7.951-4.704
	c0.946,0.659,1.568,1.841,2.553,2.419c2.351,1.38,4.853-1.258,6.934-3.126c7.177-6.443,17.383-4.755,26.314-2.748
	c4.216,0.948,8.848,2.191,11.34,6.221c3.277,5.298-3.113,11.021-4.728,17.01c-0.451,1.746,0.599,3.526,2.344,3.977
	c0.378,0.098,0.771,0.127,1.159,0.086c2.68-0.265,5.854-0.481,6.013-1.657c3.372,0.12,7.503-0.262,8.947-3.772
	c0.441-1.389,0.675-2.836,0.692-4.293c0.53-5.897,3.033-11.277,4.691-16.89s2.379-12.19-0.419-17.167
	c-0.999-1.656-2.234-3.157-3.666-4.456C135.534,2.512,114.657-0.022,94.662,0z"/>
<path fill="#FFB8B8" d="M82.138,74.905c0,0,3.454,28.778-9.209,31.081s11.511,41.441,11.511,41.441l57.557,6.907l-13.813-46.045
	c0,0-9.209-3.453-3.453-26.476C130.485,58.789,82.138,74.905,82.138,74.905z"/>
<polygon fill="#FFB8B8" points="47.028,569.318 51.633,632.63 75.806,632.63 68.9,569.318 "/>
<polygon fill="#FFB8B8" points="224.303,449.599 227.756,502.552 254.233,491.041 243.872,447.298 "/>
<path fill="#2F2E41" d="M29.761,327.58c0,0,1.151,66.766,8.058,88.637c6.907,21.873,5.756,23.023,4.604,26.477
	c-1.151,3.453-2.302,1.152-2.302,6.906c0,5.756-2.302,96.695,0,104.754s-6.907,21.871,0,23.023c6.907,1.15,39.139,0,40.29-6.906
	c1.151-6.908-9.209-9.211-4.604-13.814c4.604-4.605,11.511-98.998,11.511-98.998l16.116-65.615l29.93-34.533h63.313l19.569,75.975
	c0,0-8.058,21.871-2.302,21.871s40.29,6.908,40.29-18.418c0-25.324-11.511-100.148-13.813-102.451s1.151-10.36-2.302-13.813
	c-3.454-3.454-43.743-27.627-58.708-32.232s-35.958-10.085-35.958-10.085L29.761,327.58z"/>
<path fill="#2F2E41" d="M254.232,481.832c0,0-17.267-5.756-25.325,11.512c-8.058,17.268-4.604,21.871-4.604,21.871
	s26.476,9.209,31.081,4.605c2.003-2.004,8.365-2.699,14.913-2.848c9.973-0.223,12.626-14.332,3.208-17.617
	c-0.281-0.1-0.565-0.184-0.853-0.256C263.441,496.796,254.232,481.832,254.232,481.832z"/>
<circle fill="#FFB8B8" cx="108.038" cy="59.365" r="34.534"/>
<path fill="#63ACFF" d="M63.144,120.375c0,0,56.406,11.511,70.219-6.907c13.813-18.418,19.569,51.801,19.569,51.801l6.907,73.672
	l-10.36,40.29c0,0-54.103,43.743-71.37,47.196c-17.267,3.454-43.743,5.756-43.743,5.756s8.058-127.776,8.058-130.079
	C42.423,199.803,63.144,120.375,63.144,120.375z"/>
<path fill="#2F2E41" d="M80.298,98.786c0,0-12.55-7.189-16.003-0.283c-3.453,6.907-35.685,24.174-39.139,24.174
	c-3.453,0,6.907,95.544,2.302,107.056c-4.604,11.511-26.476,95.544-13.813,102.451c12.663,6.907,3.454-6.907,16.116,10.36
	c12.662,17.268,74.824,17.268,78.277,10.36c3.454-6.907-27.627-58.708-21.872-107.056c5.756-48.348,14.965-115.113,6.907-124.322
	C85.016,112.317,80.298,98.786,80.298,98.786z"/>
<path fill="#2F2E41" d="M121.852,106.562l1.604-5.518c0,0,47.895,15.878,50.198,26.238c2.302,10.36,1.151,82.882-6.907,88.638
	c-8.058,5.755-19.569,14.965-11.511,28.778s17.267,28.778,24.174,29.93c6.907,1.151,19.569,9.209,16.116,17.267
	c-3.454,8.058-44.895-6.907-44.895-6.907s-27.627-20.72-26.476-52.952C125.305,199.803,121.852,106.562,121.852,106.562z"/>
<path fill="#FFB8B8" d="M162.142,242.396l-27.627,51.801c0,0-40.29,41.441-17.267,46.045c23.022,4.605,35.685-37.987,35.685-37.987
	l29.93-42.592L162.142,242.396z"/>
<path fill="#2F2E41" d="M96.344,9.036c-1.392-0.104-2.786,0.167-4.039,0.783c-1.132,0.827-2.066,1.896-2.732,3.131
	c-3.07,4.618-7.073,8.543-11.75,11.524c-3.491,2.221-7.93,4.99-7.333,9.084c0.324,1.373,0.901,2.673,1.702,3.834
	c3.232,5.703,4.519,12.302,3.665,18.801l9.6-13.954c1.524-2.215,4.171-4.715,6.472-3.324c0.771,0.466,1.276,1.301,2.078,1.71
	c1.914,0.975,3.95-0.889,5.645-2.21c5.842-4.553,14.15-3.36,21.421-1.941c3.432,0.669,7.202,1.548,9.231,4.396
	c3.372,4.733-0.149,11.572,1.819,17.04c1.113-0.779,1.862-1.976,2.078-3.317c2.745,0.085,6.108-0.185,7.284-2.666
	c0.357-0.973,0.548-1.999,0.563-3.035c0.432-4.168,2.469-7.971,3.819-11.938c1.35-3.967,1.937-8.616-0.341-12.133
	c-0.833-1.192-1.839-2.253-2.984-3.149C129.616,10.811,112.621,9.02,96.344,9.036z"/>
<path fill="#2F2E41" d="M162.142,122.677l10.725,2.847c0,0,24.96,63.919,19.205,107.662c-5.756,43.743-9.209,34.534-9.209,34.534
	s-9.209-20.721-29.93-16.116L162.142,122.677z"/>
<path fill="#2F2E41" d="M48.623,624.263c-2.776,3.771-2.22,9.164-4.678,13.15c-2.132,3.455-6.148,5.268-8.814,8.33
	c-0.851,1.016-1.609,2.107-2.266,3.26c-2.473,4.143-4.483,9.451-2.048,13.615c1.959,3.35,6.078,4.66,9.855,5.553
	c4.774,1.127,9.734,2.031,14.563,1.168c4.829-0.861,9.549-3.818,11.271-8.412c0.338-1.154,0.741-2.291,1.205-3.4
	c2.617-5.152,10.827-5.209,13.506-10.33c1.875-3.584,0.151-7.916-1.571-11.576l-5.261-11.178c-1.746-3.709-8.824-1.576-12.513-2.465
	C57.059,620.82,52.085,619.542,48.623,624.263z"/>
<path fill="#FFB8B8" d="M10.192,265.418l48.348,74.824c0,0,29.929,37.988,39.139,20.721c9.209-17.268-32.232-46.045-32.232-46.045
	L34.366,257.36L10.192,265.418z"/>
<path fill="#2F2E41" d="M34.366,124.979l-9.209-2.302c0,0-18.418,5.756-23.022,29.93S0.982,273.476,6.738,274.627
	c5.756,1.151,28.427-16.837,32.056-13.023c3.629,3.813-7.882-15.756-4.429-26.116C37.819,225.128,34.366,124.979,34.366,124.979z"/>
<g id="f3c2397c-d780-4cc6-97d8-1503d8277a2c">
	<rect id="ad41612f-86f7-46b2-a964-3a5da7bcf3cf" x="437.407" y="176.363" fill="#63ACFF" width="29.752" height="7.163"/>
	<rect id="b9a0b375-cc2a-4c59-8850-661af54e4f62" x="559.723" y="176.363" fill="#63ACFF" width="10.468" height="7.163"/>
	<rect id="e174c2ab-9bc5-41ec-b37c-b06fbf8a9878" x="580.659" y="176.363" fill="#63ACFF" width="10.468" height="7.163"/>
	<rect id="ba2479ac-4c7d-43b4-a028-73b1e20e4002" x="477.628" y="176.363" fill="#63ACFF" width="71.075" height="7.163"/>
	<rect id="ac60ef86-00f2-480b-8171-28b6fdfc1958" x="399.941" y="222.644" fill="#63ACFF" width="29.752" height="7.163"/>
	<rect id="b3d8298d-cd65-487a-8b19-4cee946356e7" x="522.256" y="222.644" fill="#63ACFF" width="10.469" height="7.163"/>
	<rect id="ed27f15f-f0c4-4569-8330-a6688f8e356c" x="543.193" y="222.644" fill="#63ACFF" width="10.468" height="7.163"/>
	<rect id="f685c005-adaf-4d60-acda-005b037d82a6" x="440.162" y="222.644" fill="#63ACFF" width="71.074" height="7.163"/>
	<rect id="eca7c7fc-83f8-48ca-a588-6606db47af3f" x="522.808" y="192.341" fill="#63ACFF" width="29.752" height="7.163"/>
	<rect id="a71b5b2f-f8b9-481d-a301-5e3357e5fe42" x="563.028" y="192.341" fill="#63ACFF" width="29.752" height="7.163"/>
	<rect id="abb3a25a-f854-41fc-8391-e6ad9fbe2417" x="399.941" y="192.341" fill="#63ACFF" width="10.468" height="7.163"/>
	<rect id="add2b425-b775-4eb5-9c25-8c4c14f957c9" x="420.878" y="192.341" fill="#63ACFF" width="10.469" height="7.163"/>
	<rect id="b7159612-3b84-4b0b-a885-612eaab04c06" x="441.814" y="192.341" fill="#63ACFF" width="71.075" height="7.163"/>
	<rect id="edfc7301-4de5-47dc-80e2-1ae2da982d6d" x="461.099" y="207.768" fill="#63ACFF" width="29.752" height="7.163"/>
	<rect id="e1009f91-6275-4375-80fa-0d778e331fdc" x="420.878" y="207.768" fill="#63ACFF" width="29.752" height="7.163"/>
	<rect id="a060fb9f-1f1a-4862-9a69-16dd49199e18" x="399.941" y="207.768" fill="#63ACFF" width="10.468" height="7.163"/>
	<rect id="b6754d5f-104f-449c-b9a9-cf9ac82bf5fe" x="582.312" y="207.768" fill="#63ACFF" width="10.469" height="7.163"/>
	<rect id="e6ed1ccd-2cfd-450f-a339-07df3a1ee6bb" x="500.769" y="207.768" fill="#63ACFF" width="71.075" height="7.163"/>
</g>
<image overflow="visible" width="1068" height="610" xlink:href="../../../../Downloads/Glasses-PNG-Transparent-Image.png"  transform="matrix(0.0652 0.0165 -0.0143 0.0565 83.3418 31.8604)">
</image>
</svg>
